<mxfile host="app.diagrams.net" modified="2020-11-29T15:03:51.792Z" agent="5.0 (Windows NT 10.0; Win64; x64) AppleWebKit/537.36 (KHTML, like Gecko) Chrome/87.0.4280.66 Safari/537.36" etag="4N_g9zI4X56zVWqaPoFI" version="13.10.4" type="github" pages="9">
  <diagram id="CLCqSObVHe3IbGMdNRET" name="System Initialize">
    <mxGraphModel dx="1422" dy="706" grid="1" gridSize="10" guides="1" tooltips="1" connect="1" arrows="1" fold="1" page="1" pageScale="1" pageWidth="827" pageHeight="1169" math="0" shadow="0">
      <root>
        <mxCell id="zRy1mLhB0FLJ8UuAxCAn-0" />
        <mxCell id="zRy1mLhB0FLJ8UuAxCAn-1" parent="zRy1mLhB0FLJ8UuAxCAn-0" />
        <mxCell id="n8DKFXZTQpERL6Y8hoR--2" style="edgeStyle=orthogonalEdgeStyle;rounded=0;orthogonalLoop=1;jettySize=auto;html=1;exitX=0.5;exitY=1;exitDx=0;exitDy=0;entryX=0.5;entryY=0;entryDx=0;entryDy=0;" edge="1" parent="zRy1mLhB0FLJ8UuAxCAn-1" source="PUlheJNnLPUJh6BYoTJA-0" target="yAWHyerOp2EZtTRtvLod-0">
          <mxGeometry relative="1" as="geometry" />
        </mxCell>
        <mxCell id="PUlheJNnLPUJh6BYoTJA-0" value="測試機軟體系統啟動" style="rounded=0;whiteSpace=wrap;html=1;shadow=1;labelBackgroundColor=none;strokeWidth=1;fontFamily=Verdana;fontSize=8;align=center;" vertex="1" parent="zRy1mLhB0FLJ8UuAxCAn-1">
          <mxGeometry x="354" y="30" width="120" height="60" as="geometry" />
        </mxCell>
        <mxCell id="n8DKFXZTQpERL6Y8hoR--3" style="edgeStyle=orthogonalEdgeStyle;rounded=0;orthogonalLoop=1;jettySize=auto;html=1;exitX=0.5;exitY=1;exitDx=0;exitDy=0;entryX=0.5;entryY=0;entryDx=0;entryDy=0;" edge="1" parent="zRy1mLhB0FLJ8UuAxCAn-1" source="yAWHyerOp2EZtTRtvLod-0" target="G1nQ48hyFJKpbSVYzelQ-0">
          <mxGeometry relative="1" as="geometry" />
        </mxCell>
        <mxCell id="yAWHyerOp2EZtTRtvLod-0" value="進入初始化介面" style="rounded=0;whiteSpace=wrap;html=1;shadow=1;labelBackgroundColor=none;strokeWidth=1;fontFamily=Verdana;fontSize=8;align=center;" vertex="1" parent="zRy1mLhB0FLJ8UuAxCAn-1">
          <mxGeometry x="354" y="130" width="120" height="60" as="geometry" />
        </mxCell>
        <mxCell id="n8DKFXZTQpERL6Y8hoR--4" style="edgeStyle=orthogonalEdgeStyle;rounded=0;orthogonalLoop=1;jettySize=auto;html=1;exitX=1;exitY=0.5;exitDx=0;exitDy=0;entryX=0.5;entryY=0;entryDx=0;entryDy=0;" edge="1" parent="zRy1mLhB0FLJ8UuAxCAn-1" source="G1nQ48hyFJKpbSVYzelQ-0" target="n8DKFXZTQpERL6Y8hoR--0">
          <mxGeometry relative="1" as="geometry" />
        </mxCell>
        <mxCell id="n8DKFXZTQpERL6Y8hoR--5" style="edgeStyle=orthogonalEdgeStyle;rounded=0;orthogonalLoop=1;jettySize=auto;html=1;exitX=0;exitY=0.5;exitDx=0;exitDy=0;entryX=0.5;entryY=0;entryDx=0;entryDy=0;" edge="1" parent="zRy1mLhB0FLJ8UuAxCAn-1" source="G1nQ48hyFJKpbSVYzelQ-0" target="n8DKFXZTQpERL6Y8hoR--1">
          <mxGeometry relative="1" as="geometry" />
        </mxCell>
        <mxCell id="G1nQ48hyFJKpbSVYzelQ-0" value="判斷是否進入Online Mode" style="rhombus;whiteSpace=wrap;html=1;rounded=0;shadow=1;labelBackgroundColor=none;strokeWidth=1;fontFamily=Verdana;fontSize=8;align=center;" vertex="1" parent="zRy1mLhB0FLJ8UuAxCAn-1">
          <mxGeometry x="364" y="230" width="100" height="60" as="geometry" />
        </mxCell>
        <mxCell id="n8DKFXZTQpERL6Y8hoR--13" style="edgeStyle=orthogonalEdgeStyle;rounded=0;orthogonalLoop=1;jettySize=auto;html=1;exitX=0.5;exitY=1;exitDx=0;exitDy=0;entryX=0.5;entryY=0;entryDx=0;entryDy=0;" edge="1" parent="zRy1mLhB0FLJ8UuAxCAn-1" source="n8DKFXZTQpERL6Y8hoR--0" target="n8DKFXZTQpERL6Y8hoR--10">
          <mxGeometry relative="1" as="geometry" />
        </mxCell>
        <mxCell id="n8DKFXZTQpERL6Y8hoR--0" value="Online Mode" style="rounded=0;whiteSpace=wrap;html=1;shadow=1;labelBackgroundColor=none;strokeWidth=1;fontFamily=Verdana;fontSize=8;align=center;" vertex="1" parent="zRy1mLhB0FLJ8UuAxCAn-1">
          <mxGeometry x="474" y="330" width="120" height="60" as="geometry" />
        </mxCell>
        <mxCell id="n8DKFXZTQpERL6Y8hoR--16" style="edgeStyle=orthogonalEdgeStyle;rounded=0;orthogonalLoop=1;jettySize=auto;html=1;entryX=0.5;entryY=0;entryDx=0;entryDy=0;" edge="1" parent="zRy1mLhB0FLJ8UuAxCAn-1" source="n8DKFXZTQpERL6Y8hoR--1" target="n8DKFXZTQpERL6Y8hoR--9">
          <mxGeometry relative="1" as="geometry" />
        </mxCell>
        <mxCell id="n8DKFXZTQpERL6Y8hoR--1" value="Offline Mode" style="rounded=0;whiteSpace=wrap;html=1;shadow=1;labelBackgroundColor=none;strokeWidth=1;fontFamily=Verdana;fontSize=8;align=center;" vertex="1" parent="zRy1mLhB0FLJ8UuAxCAn-1">
          <mxGeometry x="244" y="330" width="120" height="60" as="geometry" />
        </mxCell>
        <mxCell id="n8DKFXZTQpERL6Y8hoR--6" value="是" style="text;html=1;strokeColor=none;fillColor=none;align=center;verticalAlign=middle;whiteSpace=wrap;rounded=0;" vertex="1" parent="zRy1mLhB0FLJ8UuAxCAn-1">
          <mxGeometry x="474" y="240" width="40" height="20" as="geometry" />
        </mxCell>
        <mxCell id="n8DKFXZTQpERL6Y8hoR--7" value="否" style="text;html=1;strokeColor=none;fillColor=none;align=center;verticalAlign=middle;whiteSpace=wrap;rounded=0;" vertex="1" parent="zRy1mLhB0FLJ8UuAxCAn-1">
          <mxGeometry x="314" y="240" width="40" height="20" as="geometry" />
        </mxCell>
        <mxCell id="n8DKFXZTQpERL6Y8hoR--15" style="edgeStyle=orthogonalEdgeStyle;rounded=0;orthogonalLoop=1;jettySize=auto;html=1;entryX=0.5;entryY=0;entryDx=0;entryDy=0;" edge="1" parent="zRy1mLhB0FLJ8UuAxCAn-1" source="n8DKFXZTQpERL6Y8hoR--9" target="n8DKFXZTQpERL6Y8hoR--12">
          <mxGeometry relative="1" as="geometry" />
        </mxCell>
        <mxCell id="n8DKFXZTQpERL6Y8hoR--9" value="建立假資料" style="rounded=0;whiteSpace=wrap;html=1;shadow=1;labelBackgroundColor=none;strokeWidth=1;fontFamily=Verdana;fontSize=8;align=center;" vertex="1" parent="zRy1mLhB0FLJ8UuAxCAn-1">
          <mxGeometry x="244" y="430" width="120" height="60" as="geometry" />
        </mxCell>
        <mxCell id="n8DKFXZTQpERL6Y8hoR--14" style="edgeStyle=orthogonalEdgeStyle;rounded=0;orthogonalLoop=1;jettySize=auto;html=1;entryX=0.5;entryY=0;entryDx=0;entryDy=0;" edge="1" parent="zRy1mLhB0FLJ8UuAxCAn-1" source="n8DKFXZTQpERL6Y8hoR--10" target="n8DKFXZTQpERL6Y8hoR--12">
          <mxGeometry relative="1" as="geometry" />
        </mxCell>
        <mxCell id="n8DKFXZTQpERL6Y8hoR--10" value="取得實際資料" style="rounded=0;whiteSpace=wrap;html=1;shadow=1;labelBackgroundColor=none;strokeWidth=1;fontFamily=Verdana;fontSize=8;align=center;" vertex="1" parent="zRy1mLhB0FLJ8UuAxCAn-1">
          <mxGeometry x="474" y="430" width="120" height="60" as="geometry" />
        </mxCell>
        <mxCell id="n8DKFXZTQpERL6Y8hoR--12" value="顯示測試機資訊" style="rounded=0;whiteSpace=wrap;html=1;shadow=1;labelBackgroundColor=none;strokeWidth=1;fontFamily=Verdana;fontSize=8;align=center;" vertex="1" parent="zRy1mLhB0FLJ8UuAxCAn-1">
          <mxGeometry x="354" y="540" width="120" height="60" as="geometry" />
        </mxCell>
      </root>
    </mxGraphModel>
  </diagram>
  <diagram id="OkAvBcO5Cell1GezZqvQ" name="Test Program Editor(1) - Create Project">
    <mxGraphModel dx="1422" dy="706" grid="1" gridSize="10" guides="1" tooltips="1" connect="1" arrows="1" fold="1" page="1" pageScale="1" pageWidth="827" pageHeight="1169" math="0" shadow="0">
      <root>
        <mxCell id="Jbsj4S-44XWDdqZUv883-0" />
        <mxCell id="Jbsj4S-44XWDdqZUv883-1" parent="Jbsj4S-44XWDdqZUv883-0" />
        <mxCell id="FqbUw-K2HMIyv0-A4MoQ-1" style="edgeStyle=orthogonalEdgeStyle;rounded=0;orthogonalLoop=1;jettySize=auto;html=1;entryX=0.5;entryY=0;entryDx=0;entryDy=0;" edge="1" parent="Jbsj4S-44XWDdqZUv883-1" source="L9qb6uXdO7P_yvUy6v5C-0" target="L9qb6uXdO7P_yvUy6v5C-1">
          <mxGeometry relative="1" as="geometry" />
        </mxCell>
        <mxCell id="L9qb6uXdO7P_yvUy6v5C-0" value="建立測試程式專案" style="rounded=0;whiteSpace=wrap;html=1;shadow=1;labelBackgroundColor=none;strokeWidth=1;fontFamily=Verdana;fontSize=8;align=center;" vertex="1" parent="Jbsj4S-44XWDdqZUv883-1">
          <mxGeometry x="354" y="80" width="120" height="60" as="geometry" />
        </mxCell>
        <mxCell id="FqbUw-K2HMIyv0-A4MoQ-2" style="edgeStyle=orthogonalEdgeStyle;rounded=0;orthogonalLoop=1;jettySize=auto;html=1;entryX=0.5;entryY=0;entryDx=0;entryDy=0;" edge="1" parent="Jbsj4S-44XWDdqZUv883-1" source="L9qb6uXdO7P_yvUy6v5C-1" target="L9qb6uXdO7P_yvUy6v5C-2">
          <mxGeometry relative="1" as="geometry" />
        </mxCell>
        <mxCell id="L9qb6uXdO7P_yvUy6v5C-1" value="顯示建立測試專案視窗" style="rounded=0;whiteSpace=wrap;html=1;shadow=1;labelBackgroundColor=none;strokeWidth=1;fontFamily=Verdana;fontSize=8;align=center;" vertex="1" parent="Jbsj4S-44XWDdqZUv883-1">
          <mxGeometry x="354" y="170" width="120" height="60" as="geometry" />
        </mxCell>
        <mxCell id="FqbUw-K2HMIyv0-A4MoQ-3" style="edgeStyle=orthogonalEdgeStyle;rounded=0;orthogonalLoop=1;jettySize=auto;html=1;exitX=0.5;exitY=1;exitDx=0;exitDy=0;entryX=0.5;entryY=0;entryDx=0;entryDy=0;" edge="1" parent="Jbsj4S-44XWDdqZUv883-1" source="L9qb6uXdO7P_yvUy6v5C-2" target="L9qb6uXdO7P_yvUy6v5C-3">
          <mxGeometry relative="1" as="geometry" />
        </mxCell>
        <mxCell id="L9qb6uXdO7P_yvUy6v5C-2" value="輸入專案名稱" style="rounded=0;whiteSpace=wrap;html=1;shadow=1;labelBackgroundColor=none;strokeWidth=1;fontFamily=Verdana;fontSize=8;align=center;" vertex="1" parent="Jbsj4S-44XWDdqZUv883-1">
          <mxGeometry x="354" y="260" width="120" height="60" as="geometry" />
        </mxCell>
        <mxCell id="FqbUw-K2HMIyv0-A4MoQ-4" style="edgeStyle=orthogonalEdgeStyle;rounded=0;orthogonalLoop=1;jettySize=auto;html=1;entryX=0.5;entryY=0;entryDx=0;entryDy=0;" edge="1" parent="Jbsj4S-44XWDdqZUv883-1" source="L9qb6uXdO7P_yvUy6v5C-3" target="L9qb6uXdO7P_yvUy6v5C-4">
          <mxGeometry relative="1" as="geometry" />
        </mxCell>
        <mxCell id="L9qb6uXdO7P_yvUy6v5C-3" value="選擇專案路徑" style="rounded=0;whiteSpace=wrap;html=1;shadow=1;labelBackgroundColor=none;strokeWidth=1;fontFamily=Verdana;fontSize=8;align=center;" vertex="1" parent="Jbsj4S-44XWDdqZUv883-1">
          <mxGeometry x="354" y="340" width="120" height="60" as="geometry" />
        </mxCell>
        <mxCell id="FqbUw-K2HMIyv0-A4MoQ-5" style="edgeStyle=orthogonalEdgeStyle;rounded=0;orthogonalLoop=1;jettySize=auto;html=1;exitX=0.5;exitY=1;exitDx=0;exitDy=0;entryX=0.5;entryY=0;entryDx=0;entryDy=0;" edge="1" parent="Jbsj4S-44XWDdqZUv883-1" source="L9qb6uXdO7P_yvUy6v5C-4" target="FqbUw-K2HMIyv0-A4MoQ-0">
          <mxGeometry relative="1" as="geometry" />
        </mxCell>
        <mxCell id="L9qb6uXdO7P_yvUy6v5C-4" value="選擇測試機種類" style="rounded=0;whiteSpace=wrap;html=1;shadow=1;labelBackgroundColor=none;strokeWidth=1;fontFamily=Verdana;fontSize=8;align=center;" vertex="1" parent="Jbsj4S-44XWDdqZUv883-1">
          <mxGeometry x="354" y="430" width="120" height="60" as="geometry" />
        </mxCell>
        <mxCell id="FqbUw-K2HMIyv0-A4MoQ-7" style="edgeStyle=orthogonalEdgeStyle;rounded=0;orthogonalLoop=1;jettySize=auto;html=1;exitX=1;exitY=0.5;exitDx=0;exitDy=0;entryX=0;entryY=0.5;entryDx=0;entryDy=0;" edge="1" parent="Jbsj4S-44XWDdqZUv883-1" source="FqbUw-K2HMIyv0-A4MoQ-0" target="FqbUw-K2HMIyv0-A4MoQ-6">
          <mxGeometry relative="1" as="geometry" />
        </mxCell>
        <mxCell id="FqbUw-K2HMIyv0-A4MoQ-10" style="edgeStyle=orthogonalEdgeStyle;rounded=0;orthogonalLoop=1;jettySize=auto;html=1;exitX=0;exitY=0.5;exitDx=0;exitDy=0;entryX=1;entryY=0.5;entryDx=0;entryDy=0;" edge="1" parent="Jbsj4S-44XWDdqZUv883-1" source="FqbUw-K2HMIyv0-A4MoQ-0" target="FqbUw-K2HMIyv0-A4MoQ-9">
          <mxGeometry relative="1" as="geometry" />
        </mxCell>
        <mxCell id="FqbUw-K2HMIyv0-A4MoQ-0" value="判斷專案名稱是否重複" style="rhombus;whiteSpace=wrap;html=1;rounded=0;shadow=1;labelBackgroundColor=none;strokeWidth=1;fontFamily=Verdana;fontSize=8;align=center;" vertex="1" parent="Jbsj4S-44XWDdqZUv883-1">
          <mxGeometry x="321" y="540" width="186" height="60" as="geometry" />
        </mxCell>
        <mxCell id="FqbUw-K2HMIyv0-A4MoQ-14" style="edgeStyle=orthogonalEdgeStyle;rounded=0;orthogonalLoop=1;jettySize=auto;html=1;exitX=0.5;exitY=1;exitDx=0;exitDy=0;entryX=1;entryY=0.5;entryDx=0;entryDy=0;" edge="1" parent="Jbsj4S-44XWDdqZUv883-1" source="FqbUw-K2HMIyv0-A4MoQ-6" target="FqbUw-K2HMIyv0-A4MoQ-13">
          <mxGeometry relative="1" as="geometry" />
        </mxCell>
        <mxCell id="FqbUw-K2HMIyv0-A4MoQ-6" value="顯示錯誤訊息" style="rounded=0;whiteSpace=wrap;html=1;shadow=1;labelBackgroundColor=none;strokeWidth=1;fontFamily=Verdana;fontSize=8;align=center;" vertex="1" parent="Jbsj4S-44XWDdqZUv883-1">
          <mxGeometry x="570" y="540" width="120" height="60" as="geometry" />
        </mxCell>
        <mxCell id="FqbUw-K2HMIyv0-A4MoQ-8" value="是" style="text;html=1;strokeColor=none;fillColor=none;align=center;verticalAlign=middle;whiteSpace=wrap;rounded=0;" vertex="1" parent="Jbsj4S-44XWDdqZUv883-1">
          <mxGeometry x="510" y="540" width="40" height="20" as="geometry" />
        </mxCell>
        <mxCell id="FqbUw-K2HMIyv0-A4MoQ-12" style="edgeStyle=orthogonalEdgeStyle;rounded=0;orthogonalLoop=1;jettySize=auto;html=1;entryX=0;entryY=0.5;entryDx=0;entryDy=0;" edge="1" parent="Jbsj4S-44XWDdqZUv883-1" source="FqbUw-K2HMIyv0-A4MoQ-9" target="FqbUw-K2HMIyv0-A4MoQ-13">
          <mxGeometry relative="1" as="geometry">
            <mxPoint x="321" y="690" as="targetPoint" />
            <Array as="points">
              <mxPoint x="200" y="690" />
            </Array>
          </mxGeometry>
        </mxCell>
        <mxCell id="FqbUw-K2HMIyv0-A4MoQ-9" value="不顯示任何訊息" style="rounded=0;whiteSpace=wrap;html=1;shadow=1;labelBackgroundColor=none;strokeWidth=1;fontFamily=Verdana;fontSize=8;align=center;" vertex="1" parent="Jbsj4S-44XWDdqZUv883-1">
          <mxGeometry x="140" y="540" width="120" height="60" as="geometry" />
        </mxCell>
        <mxCell id="FqbUw-K2HMIyv0-A4MoQ-20" style="edgeStyle=orthogonalEdgeStyle;rounded=0;orthogonalLoop=1;jettySize=auto;html=1;entryX=0.5;entryY=0;entryDx=0;entryDy=0;" edge="1" parent="Jbsj4S-44XWDdqZUv883-1" source="FqbUw-K2HMIyv0-A4MoQ-13" target="FqbUw-K2HMIyv0-A4MoQ-15">
          <mxGeometry relative="1" as="geometry" />
        </mxCell>
        <mxCell id="FqbUw-K2HMIyv0-A4MoQ-13" value="使用者按下建立按鈕" style="rounded=0;whiteSpace=wrap;html=1;shadow=1;labelBackgroundColor=none;strokeWidth=1;fontFamily=Verdana;fontSize=8;align=center;" vertex="1" parent="Jbsj4S-44XWDdqZUv883-1">
          <mxGeometry x="354" y="660" width="120" height="60" as="geometry" />
        </mxCell>
        <mxCell id="FqbUw-K2HMIyv0-A4MoQ-18" style="edgeStyle=orthogonalEdgeStyle;rounded=0;orthogonalLoop=1;jettySize=auto;html=1;exitX=0;exitY=0.5;exitDx=0;exitDy=0;entryX=0.5;entryY=0;entryDx=0;entryDy=0;" edge="1" parent="Jbsj4S-44XWDdqZUv883-1" source="FqbUw-K2HMIyv0-A4MoQ-15" target="FqbUw-K2HMIyv0-A4MoQ-16">
          <mxGeometry relative="1" as="geometry" />
        </mxCell>
        <mxCell id="FqbUw-K2HMIyv0-A4MoQ-19" style="edgeStyle=orthogonalEdgeStyle;rounded=0;orthogonalLoop=1;jettySize=auto;html=1;entryX=0.5;entryY=0;entryDx=0;entryDy=0;" edge="1" parent="Jbsj4S-44XWDdqZUv883-1" source="FqbUw-K2HMIyv0-A4MoQ-15" target="FqbUw-K2HMIyv0-A4MoQ-17">
          <mxGeometry relative="1" as="geometry">
            <Array as="points">
              <mxPoint x="534" y="800" />
            </Array>
          </mxGeometry>
        </mxCell>
        <mxCell id="FqbUw-K2HMIyv0-A4MoQ-15" value="驗證使用者輸入資訊是否有誤" style="rhombus;whiteSpace=wrap;html=1;rounded=0;shadow=1;labelBackgroundColor=none;strokeWidth=1;fontFamily=Verdana;fontSize=8;align=center;" vertex="1" parent="Jbsj4S-44XWDdqZUv883-1">
          <mxGeometry x="321" y="770" width="186" height="60" as="geometry" />
        </mxCell>
        <mxCell id="FqbUw-K2HMIyv0-A4MoQ-16" value="建立專案相關檔案" style="rounded=0;whiteSpace=wrap;html=1;shadow=1;labelBackgroundColor=none;strokeWidth=1;fontFamily=Verdana;fontSize=8;align=center;" vertex="1" parent="Jbsj4S-44XWDdqZUv883-1">
          <mxGeometry x="230" y="870" width="120" height="60" as="geometry" />
        </mxCell>
        <mxCell id="FqbUw-K2HMIyv0-A4MoQ-17" value="顯示錯誤視窗" style="rounded=0;whiteSpace=wrap;html=1;shadow=1;labelBackgroundColor=none;strokeWidth=1;fontFamily=Verdana;fontSize=8;align=center;" vertex="1" parent="Jbsj4S-44XWDdqZUv883-1">
          <mxGeometry x="474" y="870" width="120" height="60" as="geometry" />
        </mxCell>
        <mxCell id="FqbUw-K2HMIyv0-A4MoQ-21" value="否" style="text;html=1;strokeColor=none;fillColor=none;align=center;verticalAlign=middle;whiteSpace=wrap;rounded=0;" vertex="1" parent="Jbsj4S-44XWDdqZUv883-1">
          <mxGeometry x="281" y="540" width="40" height="20" as="geometry" />
        </mxCell>
        <mxCell id="FqbUw-K2HMIyv0-A4MoQ-22" value="是" style="text;html=1;strokeColor=none;fillColor=none;align=center;verticalAlign=middle;whiteSpace=wrap;rounded=0;" vertex="1" parent="Jbsj4S-44XWDdqZUv883-1">
          <mxGeometry x="540" y="810" width="40" height="20" as="geometry" />
        </mxCell>
        <mxCell id="FqbUw-K2HMIyv0-A4MoQ-23" value="否" style="text;html=1;strokeColor=none;fillColor=none;align=center;verticalAlign=middle;whiteSpace=wrap;rounded=0;" vertex="1" parent="Jbsj4S-44XWDdqZUv883-1">
          <mxGeometry x="241" y="810" width="40" height="20" as="geometry" />
        </mxCell>
      </root>
    </mxGraphModel>
  </diagram>
  <diagram id="uOaeMtCYYEVeNHCzvFZU" name="Test Program Editor(2) - Open Project">
    <mxGraphModel dx="1422" dy="706" grid="1" gridSize="10" guides="1" tooltips="1" connect="1" arrows="1" fold="1" page="1" pageScale="1" pageWidth="827" pageHeight="1169" math="0" shadow="0">
      <root>
        <mxCell id="RSsnfyRgAeE5bMs2uPNN-0" />
        <mxCell id="RSsnfyRgAeE5bMs2uPNN-1" parent="RSsnfyRgAeE5bMs2uPNN-0" />
        <mxCell id="15KKpu8dg_kLjoQSJbA_-4" style="edgeStyle=orthogonalEdgeStyle;rounded=0;orthogonalLoop=1;jettySize=auto;html=1;entryX=0.5;entryY=0;entryDx=0;entryDy=0;" edge="1" parent="RSsnfyRgAeE5bMs2uPNN-1" source="15KKpu8dg_kLjoQSJbA_-0" target="15KKpu8dg_kLjoQSJbA_-1">
          <mxGeometry relative="1" as="geometry" />
        </mxCell>
        <mxCell id="15KKpu8dg_kLjoQSJbA_-0" value="開啟專案" style="rounded=0;whiteSpace=wrap;html=1;" vertex="1" parent="RSsnfyRgAeE5bMs2uPNN-1">
          <mxGeometry x="354" y="100" width="120" height="60" as="geometry" />
        </mxCell>
        <mxCell id="15KKpu8dg_kLjoQSJbA_-5" style="edgeStyle=orthogonalEdgeStyle;rounded=0;orthogonalLoop=1;jettySize=auto;html=1;exitX=0.5;exitY=1;exitDx=0;exitDy=0;entryX=0.5;entryY=0;entryDx=0;entryDy=0;" edge="1" parent="RSsnfyRgAeE5bMs2uPNN-1" source="15KKpu8dg_kLjoQSJbA_-1" target="15KKpu8dg_kLjoQSJbA_-2">
          <mxGeometry relative="1" as="geometry" />
        </mxCell>
        <mxCell id="15KKpu8dg_kLjoQSJbA_-1" value="顯示開啟專案視窗" style="rounded=0;whiteSpace=wrap;html=1;" vertex="1" parent="RSsnfyRgAeE5bMs2uPNN-1">
          <mxGeometry x="354" y="190" width="120" height="60" as="geometry" />
        </mxCell>
        <mxCell id="15KKpu8dg_kLjoQSJbA_-6" style="edgeStyle=orthogonalEdgeStyle;rounded=0;orthogonalLoop=1;jettySize=auto;html=1;exitX=0.5;exitY=1;exitDx=0;exitDy=0;entryX=0.5;entryY=0;entryDx=0;entryDy=0;" edge="1" parent="RSsnfyRgAeE5bMs2uPNN-1" source="15KKpu8dg_kLjoQSJbA_-2" target="15KKpu8dg_kLjoQSJbA_-3">
          <mxGeometry relative="1" as="geometry" />
        </mxCell>
        <mxCell id="15KKpu8dg_kLjoQSJbA_-2" value="選擇檔案" style="rounded=0;whiteSpace=wrap;html=1;" vertex="1" parent="RSsnfyRgAeE5bMs2uPNN-1">
          <mxGeometry x="354" y="280" width="120" height="60" as="geometry" />
        </mxCell>
        <mxCell id="15KKpu8dg_kLjoQSJbA_-3" value="開啟" style="rounded=0;whiteSpace=wrap;html=1;" vertex="1" parent="RSsnfyRgAeE5bMs2uPNN-1">
          <mxGeometry x="354" y="370" width="120" height="60" as="geometry" />
        </mxCell>
      </root>
    </mxGraphModel>
  </diagram>
  <diagram id="chye0iAjo90sJPBgSsJa" name="Test Program Editor(3) - Create File From Explorer">
    <mxGraphModel dx="1422" dy="706" grid="1" gridSize="10" guides="1" tooltips="1" connect="1" arrows="1" fold="1" page="1" pageScale="1" pageWidth="827" pageHeight="1169" math="0" shadow="0">
      <root>
        <mxCell id="PvQMEX85wnhJIoYw2e2c-0" />
        <mxCell id="PvQMEX85wnhJIoYw2e2c-1" parent="PvQMEX85wnhJIoYw2e2c-0" />
        <mxCell id="nXfgh-esFS6fGwPoKdRQ-3" style="edgeStyle=orthogonalEdgeStyle;rounded=0;orthogonalLoop=1;jettySize=auto;html=1;entryX=0.5;entryY=0;entryDx=0;entryDy=0;" edge="1" parent="PvQMEX85wnhJIoYw2e2c-1" source="plT-K8rLZUKvaydS7_1G-0" target="plT-K8rLZUKvaydS7_1G-1">
          <mxGeometry relative="1" as="geometry" />
        </mxCell>
        <mxCell id="plT-K8rLZUKvaydS7_1G-0" value="在Explorer選擇要增加的欄位" style="rounded=0;whiteSpace=wrap;html=1;" vertex="1" parent="PvQMEX85wnhJIoYw2e2c-1">
          <mxGeometry x="354" y="100" width="120" height="60" as="geometry" />
        </mxCell>
        <mxCell id="nXfgh-esFS6fGwPoKdRQ-4" style="edgeStyle=orthogonalEdgeStyle;rounded=0;orthogonalLoop=1;jettySize=auto;html=1;exitX=0.5;exitY=1;exitDx=0;exitDy=0;" edge="1" parent="PvQMEX85wnhJIoYw2e2c-1" source="plT-K8rLZUKvaydS7_1G-1" target="plT-K8rLZUKvaydS7_1G-2">
          <mxGeometry relative="1" as="geometry" />
        </mxCell>
        <mxCell id="plT-K8rLZUKvaydS7_1G-1" value="滑鼠右鍵，按下Add" style="rounded=0;whiteSpace=wrap;html=1;" vertex="1" parent="PvQMEX85wnhJIoYw2e2c-1">
          <mxGeometry x="354" y="190" width="120" height="60" as="geometry" />
        </mxCell>
        <mxCell id="nXfgh-esFS6fGwPoKdRQ-5" style="edgeStyle=orthogonalEdgeStyle;rounded=0;orthogonalLoop=1;jettySize=auto;html=1;exitX=0.5;exitY=1;exitDx=0;exitDy=0;entryX=0.5;entryY=0;entryDx=0;entryDy=0;" edge="1" parent="PvQMEX85wnhJIoYw2e2c-1" source="plT-K8rLZUKvaydS7_1G-2" target="nXfgh-esFS6fGwPoKdRQ-0">
          <mxGeometry relative="1" as="geometry" />
        </mxCell>
        <mxCell id="plT-K8rLZUKvaydS7_1G-2" value="輸入檔案名稱" style="rounded=0;whiteSpace=wrap;html=1;" vertex="1" parent="PvQMEX85wnhJIoYw2e2c-1">
          <mxGeometry x="354" y="280" width="120" height="60" as="geometry" />
        </mxCell>
        <mxCell id="nXfgh-esFS6fGwPoKdRQ-6" style="edgeStyle=orthogonalEdgeStyle;rounded=0;orthogonalLoop=1;jettySize=auto;html=1;exitX=0;exitY=0.5;exitDx=0;exitDy=0;" edge="1" parent="PvQMEX85wnhJIoYw2e2c-1" source="nXfgh-esFS6fGwPoKdRQ-0" target="nXfgh-esFS6fGwPoKdRQ-1">
          <mxGeometry relative="1" as="geometry" />
        </mxCell>
        <mxCell id="nXfgh-esFS6fGwPoKdRQ-7" style="edgeStyle=orthogonalEdgeStyle;rounded=0;orthogonalLoop=1;jettySize=auto;html=1;exitX=1;exitY=0.5;exitDx=0;exitDy=0;" edge="1" parent="PvQMEX85wnhJIoYw2e2c-1" source="nXfgh-esFS6fGwPoKdRQ-0" target="nXfgh-esFS6fGwPoKdRQ-2">
          <mxGeometry relative="1" as="geometry" />
        </mxCell>
        <mxCell id="nXfgh-esFS6fGwPoKdRQ-0" value="查看檔案名稱是否重複" style="rhombus;whiteSpace=wrap;html=1;rounded=0;shadow=1;labelBackgroundColor=none;strokeWidth=1;fontFamily=Verdana;fontSize=8;align=center;" vertex="1" parent="PvQMEX85wnhJIoYw2e2c-1">
          <mxGeometry x="321" y="380" width="186" height="60" as="geometry" />
        </mxCell>
        <mxCell id="nXfgh-esFS6fGwPoKdRQ-1" value="按下建立" style="rounded=0;whiteSpace=wrap;html=1;" vertex="1" parent="PvQMEX85wnhJIoYw2e2c-1">
          <mxGeometry x="220" y="470" width="120" height="60" as="geometry" />
        </mxCell>
        <mxCell id="nXfgh-esFS6fGwPoKdRQ-2" value="顯示錯誤訊息" style="rounded=0;whiteSpace=wrap;html=1;" vertex="1" parent="PvQMEX85wnhJIoYw2e2c-1">
          <mxGeometry x="507" y="470" width="120" height="60" as="geometry" />
        </mxCell>
      </root>
    </mxGraphModel>
  </diagram>
  <diagram id="wU5fslJ6nFUB6T2Rtwvr" name="Test Program Editor(4) - Create Header File">
    <mxGraphModel dx="1422" dy="706" grid="1" gridSize="10" guides="1" tooltips="1" connect="1" arrows="1" fold="1" page="1" pageScale="1" pageWidth="827" pageHeight="1169" math="0" shadow="0">
      <root>
        <mxCell id="79wn8bedS_qqFLUmvUWi-0" />
        <mxCell id="79wn8bedS_qqFLUmvUWi-1" parent="79wn8bedS_qqFLUmvUWi-0" />
        <mxCell id="uUCTiHdpj4ZPjWV75ZNf-3" style="edgeStyle=orthogonalEdgeStyle;rounded=0;orthogonalLoop=1;jettySize=auto;html=1;entryX=0.5;entryY=0;entryDx=0;entryDy=0;" edge="1" parent="79wn8bedS_qqFLUmvUWi-1" source="D0wWkdwv5j9zz-P8JfyV-0" target="uUCTiHdpj4ZPjWV75ZNf-0">
          <mxGeometry relative="1" as="geometry" />
        </mxCell>
        <mxCell id="D0wWkdwv5j9zz-P8JfyV-0" value="使用者按下建立標頭檔" style="rounded=0;whiteSpace=wrap;html=1;" vertex="1" parent="79wn8bedS_qqFLUmvUWi-1">
          <mxGeometry x="336" y="80" width="156" height="60" as="geometry" />
        </mxCell>
        <mxCell id="uUCTiHdpj4ZPjWV75ZNf-4" style="edgeStyle=orthogonalEdgeStyle;rounded=0;orthogonalLoop=1;jettySize=auto;html=1;exitX=0;exitY=0.5;exitDx=0;exitDy=0;entryX=0.5;entryY=0;entryDx=0;entryDy=0;" edge="1" parent="79wn8bedS_qqFLUmvUWi-1" source="uUCTiHdpj4ZPjWV75ZNf-0" target="uUCTiHdpj4ZPjWV75ZNf-1">
          <mxGeometry relative="1" as="geometry" />
        </mxCell>
        <mxCell id="uUCTiHdpj4ZPjWV75ZNf-5" style="edgeStyle=orthogonalEdgeStyle;rounded=0;orthogonalLoop=1;jettySize=auto;html=1;exitX=1;exitY=0.5;exitDx=0;exitDy=0;entryX=0.5;entryY=0;entryDx=0;entryDy=0;" edge="1" parent="79wn8bedS_qqFLUmvUWi-1" source="uUCTiHdpj4ZPjWV75ZNf-0" target="uUCTiHdpj4ZPjWV75ZNf-2">
          <mxGeometry relative="1" as="geometry" />
        </mxCell>
        <mxCell id="uUCTiHdpj4ZPjWV75ZNf-0" value="驗證所有資料正確性" style="rhombus;whiteSpace=wrap;html=1;rounded=0;shadow=1;labelBackgroundColor=none;strokeWidth=1;fontFamily=Verdana;fontSize=8;align=center;" vertex="1" parent="79wn8bedS_qqFLUmvUWi-1">
          <mxGeometry x="331" y="200" width="166" height="60" as="geometry" />
        </mxCell>
        <mxCell id="uUCTiHdpj4ZPjWV75ZNf-1" value="建立標頭檔" style="rounded=0;whiteSpace=wrap;html=1;" vertex="1" parent="79wn8bedS_qqFLUmvUWi-1">
          <mxGeometry x="210" y="290" width="156" height="60" as="geometry" />
        </mxCell>
        <mxCell id="uUCTiHdpj4ZPjWV75ZNf-2" value="顯示錯誤訊息" style="rounded=0;whiteSpace=wrap;html=1;" vertex="1" parent="79wn8bedS_qqFLUmvUWi-1">
          <mxGeometry x="470" y="290" width="156" height="60" as="geometry" />
        </mxCell>
      </root>
    </mxGraphModel>
  </diagram>
  <diagram id="_sWqFOFm_yLsNKvUEOwr" name="Engineering Mode(1) - Setup &amp; Download">
    <mxGraphModel dx="1422" dy="706" grid="1" gridSize="10" guides="1" tooltips="1" connect="1" arrows="1" fold="1" page="1" pageScale="1" pageWidth="827" pageHeight="1169" math="0" shadow="0">
      <root>
        <mxCell id="qScd2CBYFfQ9beCV414c-0" />
        <mxCell id="qScd2CBYFfQ9beCV414c-1" parent="qScd2CBYFfQ9beCV414c-0" />
        <mxCell id="JTXxYUJGqf2gsnKAXOFq-8" style="edgeStyle=orthogonalEdgeStyle;rounded=0;orthogonalLoop=1;jettySize=auto;html=1;exitX=0.5;exitY=1;exitDx=0;exitDy=0;entryX=0.5;entryY=0;entryDx=0;entryDy=0;" edge="1" parent="qScd2CBYFfQ9beCV414c-1" source="JTXxYUJGqf2gsnKAXOFq-0" target="JTXxYUJGqf2gsnKAXOFq-1">
          <mxGeometry relative="1" as="geometry" />
        </mxCell>
        <mxCell id="JTXxYUJGqf2gsnKAXOFq-0" value="使用者選擇專案檔" style="rounded=0;whiteSpace=wrap;html=1;" vertex="1" parent="qScd2CBYFfQ9beCV414c-1">
          <mxGeometry x="354" y="110" width="120" height="60" as="geometry" />
        </mxCell>
        <mxCell id="JTXxYUJGqf2gsnKAXOFq-9" style="edgeStyle=orthogonalEdgeStyle;rounded=0;orthogonalLoop=1;jettySize=auto;html=1;exitX=0.5;exitY=1;exitDx=0;exitDy=0;entryX=0.5;entryY=0;entryDx=0;entryDy=0;" edge="1" parent="qScd2CBYFfQ9beCV414c-1" source="JTXxYUJGqf2gsnKAXOFq-1" target="JTXxYUJGqf2gsnKAXOFq-3">
          <mxGeometry relative="1" as="geometry" />
        </mxCell>
        <mxCell id="JTXxYUJGqf2gsnKAXOFq-1" value="載入專案檔" style="rounded=0;whiteSpace=wrap;html=1;" vertex="1" parent="qScd2CBYFfQ9beCV414c-1">
          <mxGeometry x="354" y="200" width="120" height="60" as="geometry" />
        </mxCell>
        <mxCell id="JTXxYUJGqf2gsnKAXOFq-12" style="edgeStyle=orthogonalEdgeStyle;rounded=0;orthogonalLoop=1;jettySize=auto;html=1;exitX=0.5;exitY=1;exitDx=0;exitDy=0;entryX=0;entryY=0.5;entryDx=0;entryDy=0;" edge="1" parent="qScd2CBYFfQ9beCV414c-1" source="JTXxYUJGqf2gsnKAXOFq-2" target="JTXxYUJGqf2gsnKAXOFq-5">
          <mxGeometry relative="1" as="geometry" />
        </mxCell>
        <mxCell id="JTXxYUJGqf2gsnKAXOFq-2" value="回復上次設定" style="rounded=0;whiteSpace=wrap;html=1;" vertex="1" parent="qScd2CBYFfQ9beCV414c-1">
          <mxGeometry x="210" y="380" width="120" height="60" as="geometry" />
        </mxCell>
        <mxCell id="JTXxYUJGqf2gsnKAXOFq-10" style="edgeStyle=orthogonalEdgeStyle;rounded=0;orthogonalLoop=1;jettySize=auto;html=1;exitX=1;exitY=0.5;exitDx=0;exitDy=0;entryX=0.5;entryY=0;entryDx=0;entryDy=0;" edge="1" parent="qScd2CBYFfQ9beCV414c-1" source="JTXxYUJGqf2gsnKAXOFq-3" target="JTXxYUJGqf2gsnKAXOFq-4">
          <mxGeometry relative="1" as="geometry" />
        </mxCell>
        <mxCell id="JTXxYUJGqf2gsnKAXOFq-11" style="edgeStyle=orthogonalEdgeStyle;rounded=0;orthogonalLoop=1;jettySize=auto;html=1;exitX=0;exitY=0.5;exitDx=0;exitDy=0;entryX=0.5;entryY=0;entryDx=0;entryDy=0;" edge="1" parent="qScd2CBYFfQ9beCV414c-1" source="JTXxYUJGqf2gsnKAXOFq-3" target="JTXxYUJGqf2gsnKAXOFq-2">
          <mxGeometry relative="1" as="geometry" />
        </mxCell>
        <mxCell id="JTXxYUJGqf2gsnKAXOFq-3" value="3個月內是否使用過此檔案" style="rhombus;whiteSpace=wrap;html=1;" vertex="1" parent="qScd2CBYFfQ9beCV414c-1">
          <mxGeometry x="311" y="280" width="206" height="80" as="geometry" />
        </mxCell>
        <mxCell id="JTXxYUJGqf2gsnKAXOFq-13" style="edgeStyle=orthogonalEdgeStyle;rounded=0;orthogonalLoop=1;jettySize=auto;html=1;exitX=0.5;exitY=1;exitDx=0;exitDy=0;entryX=1;entryY=0.5;entryDx=0;entryDy=0;" edge="1" parent="qScd2CBYFfQ9beCV414c-1" source="JTXxYUJGqf2gsnKAXOFq-4" target="JTXxYUJGqf2gsnKAXOFq-5">
          <mxGeometry relative="1" as="geometry" />
        </mxCell>
        <mxCell id="JTXxYUJGqf2gsnKAXOFq-4" value="建立新的設定檔" style="rounded=0;whiteSpace=wrap;html=1;" vertex="1" parent="qScd2CBYFfQ9beCV414c-1">
          <mxGeometry x="517" y="380" width="120" height="60" as="geometry" />
        </mxCell>
        <mxCell id="JTXxYUJGqf2gsnKAXOFq-14" style="edgeStyle=orthogonalEdgeStyle;rounded=0;orthogonalLoop=1;jettySize=auto;html=1;exitX=0.5;exitY=1;exitDx=0;exitDy=0;entryX=0.5;entryY=0;entryDx=0;entryDy=0;" edge="1" parent="qScd2CBYFfQ9beCV414c-1" source="JTXxYUJGqf2gsnKAXOFq-5" target="JTXxYUJGqf2gsnKAXOFq-6">
          <mxGeometry relative="1" as="geometry" />
        </mxCell>
        <mxCell id="JTXxYUJGqf2gsnKAXOFq-5" value="選擇Download選項" style="rounded=0;whiteSpace=wrap;html=1;" vertex="1" parent="qScd2CBYFfQ9beCV414c-1">
          <mxGeometry x="354" y="450" width="120" height="60" as="geometry" />
        </mxCell>
        <mxCell id="JTXxYUJGqf2gsnKAXOFq-15" style="edgeStyle=orthogonalEdgeStyle;rounded=0;orthogonalLoop=1;jettySize=auto;html=1;exitX=0.5;exitY=1;exitDx=0;exitDy=0;entryX=0.5;entryY=0;entryDx=0;entryDy=0;" edge="1" parent="qScd2CBYFfQ9beCV414c-1" source="JTXxYUJGqf2gsnKAXOFq-6" target="JTXxYUJGqf2gsnKAXOFq-7">
          <mxGeometry relative="1" as="geometry" />
        </mxCell>
        <mxCell id="JTXxYUJGqf2gsnKAXOFq-6" value="輸入或載入&lt;br&gt;Barcode資訊" style="rounded=0;whiteSpace=wrap;html=1;" vertex="1" parent="qScd2CBYFfQ9beCV414c-1">
          <mxGeometry x="354" y="525" width="120" height="60" as="geometry" />
        </mxCell>
        <mxCell id="JTXxYUJGqf2gsnKAXOFq-20" style="edgeStyle=orthogonalEdgeStyle;rounded=0;orthogonalLoop=1;jettySize=auto;html=1;exitX=0.5;exitY=1;exitDx=0;exitDy=0;entryX=0.5;entryY=0;entryDx=0;entryDy=0;" edge="1" parent="qScd2CBYFfQ9beCV414c-1" source="JTXxYUJGqf2gsnKAXOFq-7" target="JTXxYUJGqf2gsnKAXOFq-17">
          <mxGeometry relative="1" as="geometry" />
        </mxCell>
        <mxCell id="JTXxYUJGqf2gsnKAXOFq-7" value="選擇預Download&lt;br&gt;之Pattern" style="rounded=0;whiteSpace=wrap;html=1;" vertex="1" parent="qScd2CBYFfQ9beCV414c-1">
          <mxGeometry x="354" y="600" width="120" height="60" as="geometry" />
        </mxCell>
        <mxCell id="JTXxYUJGqf2gsnKAXOFq-21" style="edgeStyle=orthogonalEdgeStyle;rounded=0;orthogonalLoop=1;jettySize=auto;html=1;exitX=1;exitY=0.5;exitDx=0;exitDy=0;" edge="1" parent="qScd2CBYFfQ9beCV414c-1" source="JTXxYUJGqf2gsnKAXOFq-17" target="JTXxYUJGqf2gsnKAXOFq-19">
          <mxGeometry relative="1" as="geometry" />
        </mxCell>
        <mxCell id="JTXxYUJGqf2gsnKAXOFq-22" style="edgeStyle=orthogonalEdgeStyle;rounded=0;orthogonalLoop=1;jettySize=auto;html=1;exitX=0;exitY=0.5;exitDx=0;exitDy=0;entryX=0.5;entryY=0;entryDx=0;entryDy=0;" edge="1" parent="qScd2CBYFfQ9beCV414c-1" source="JTXxYUJGqf2gsnKAXOFq-17" target="JTXxYUJGqf2gsnKAXOFq-18">
          <mxGeometry relative="1" as="geometry" />
        </mxCell>
        <mxCell id="JTXxYUJGqf2gsnKAXOFq-17" value="檢查測試程式的資料，是否有問題" style="rhombus;whiteSpace=wrap;html=1;" vertex="1" parent="qScd2CBYFfQ9beCV414c-1">
          <mxGeometry x="341" y="680" width="146" height="80" as="geometry" />
        </mxCell>
        <mxCell id="JTXxYUJGqf2gsnKAXOFq-18" value="開始Download至Tester" style="rounded=0;whiteSpace=wrap;html=1;" vertex="1" parent="qScd2CBYFfQ9beCV414c-1">
          <mxGeometry x="221" y="760" width="120" height="60" as="geometry" />
        </mxCell>
        <mxCell id="JTXxYUJGqf2gsnKAXOFq-19" value="顯示錯誤視窗" style="rounded=0;whiteSpace=wrap;html=1;" vertex="1" parent="qScd2CBYFfQ9beCV414c-1">
          <mxGeometry x="487" y="760" width="120" height="60" as="geometry" />
        </mxCell>
      </root>
    </mxGraphModel>
  </diagram>
  <diagram id="NW4nHnB_6bAH4PC5b4Vk" name="Engineering Mode(2) - Run Flow">
    <mxGraphModel dx="1422" dy="706" grid="1" gridSize="10" guides="1" tooltips="1" connect="1" arrows="1" fold="1" page="1" pageScale="1" pageWidth="827" pageHeight="1169" math="0" shadow="0">
      <root>
        <mxCell id="tv8JQ7Ux13tajFk1qhFI-0" />
        <mxCell id="tv8JQ7Ux13tajFk1qhFI-1" parent="tv8JQ7Ux13tajFk1qhFI-0" />
        <mxCell id="tv8JQ7Ux13tajFk1qhFI-9" style="edgeStyle=orthogonalEdgeStyle;rounded=0;orthogonalLoop=1;jettySize=auto;html=1;entryX=0.5;entryY=0;entryDx=0;entryDy=0;" edge="1" parent="tv8JQ7Ux13tajFk1qhFI-1" source="tv8JQ7Ux13tajFk1qhFI-2" target="tv8JQ7Ux13tajFk1qhFI-6">
          <mxGeometry relative="1" as="geometry" />
        </mxCell>
        <mxCell id="tv8JQ7Ux13tajFk1qhFI-2" value="Active or Deactivate&amp;nbsp;&lt;br&gt;Site Number" style="rounded=0;whiteSpace=wrap;html=1;" vertex="1" parent="tv8JQ7Ux13tajFk1qhFI-1">
          <mxGeometry x="354" y="60" width="120" height="60" as="geometry" />
        </mxCell>
        <mxCell id="tv8JQ7Ux13tajFk1qhFI-12" style="edgeStyle=orthogonalEdgeStyle;rounded=0;orthogonalLoop=1;jettySize=auto;html=1;exitX=0.5;exitY=1;exitDx=0;exitDy=0;entryX=0.5;entryY=0;entryDx=0;entryDy=0;" edge="1" parent="tv8JQ7Ux13tajFk1qhFI-1" source="tv8JQ7Ux13tajFk1qhFI-3" target="tv8JQ7Ux13tajFk1qhFI-7">
          <mxGeometry relative="1" as="geometry" />
        </mxCell>
        <mxCell id="tv8JQ7Ux13tajFk1qhFI-3" value="Run Test Flow" style="rounded=0;whiteSpace=wrap;html=1;" vertex="1" parent="tv8JQ7Ux13tajFk1qhFI-1">
          <mxGeometry x="262" y="250" width="120" height="60" as="geometry" />
        </mxCell>
        <mxCell id="tv8JQ7Ux13tajFk1qhFI-13" style="edgeStyle=orthogonalEdgeStyle;rounded=0;orthogonalLoop=1;jettySize=auto;html=1;" edge="1" parent="tv8JQ7Ux13tajFk1qhFI-1" source="tv8JQ7Ux13tajFk1qhFI-4" target="tv8JQ7Ux13tajFk1qhFI-7">
          <mxGeometry relative="1" as="geometry" />
        </mxCell>
        <mxCell id="tv8JQ7Ux13tajFk1qhFI-4" value="Run Select Test Item" style="rounded=0;whiteSpace=wrap;html=1;" vertex="1" parent="tv8JQ7Ux13tajFk1qhFI-1">
          <mxGeometry x="446" y="250" width="120" height="60" as="geometry" />
        </mxCell>
        <mxCell id="tv8JQ7Ux13tajFk1qhFI-10" style="edgeStyle=orthogonalEdgeStyle;rounded=0;orthogonalLoop=1;jettySize=auto;html=1;entryX=0.5;entryY=0;entryDx=0;entryDy=0;" edge="1" parent="tv8JQ7Ux13tajFk1qhFI-1" source="tv8JQ7Ux13tajFk1qhFI-6" target="tv8JQ7Ux13tajFk1qhFI-3">
          <mxGeometry relative="1" as="geometry" />
        </mxCell>
        <mxCell id="tv8JQ7Ux13tajFk1qhFI-11" style="edgeStyle=orthogonalEdgeStyle;rounded=0;orthogonalLoop=1;jettySize=auto;html=1;entryX=0.5;entryY=0;entryDx=0;entryDy=0;" edge="1" parent="tv8JQ7Ux13tajFk1qhFI-1" source="tv8JQ7Ux13tajFk1qhFI-6" target="tv8JQ7Ux13tajFk1qhFI-4">
          <mxGeometry relative="1" as="geometry" />
        </mxCell>
        <mxCell id="tv8JQ7Ux13tajFk1qhFI-6" value="Set Break Point" style="rounded=0;whiteSpace=wrap;html=1;" vertex="1" parent="tv8JQ7Ux13tajFk1qhFI-1">
          <mxGeometry x="354" y="150" width="120" height="60" as="geometry" />
        </mxCell>
        <mxCell id="tv8JQ7Ux13tajFk1qhFI-14" style="edgeStyle=orthogonalEdgeStyle;rounded=0;orthogonalLoop=1;jettySize=auto;html=1;entryX=0.5;entryY=0;entryDx=0;entryDy=0;" edge="1" parent="tv8JQ7Ux13tajFk1qhFI-1" source="tv8JQ7Ux13tajFk1qhFI-7" target="tv8JQ7Ux13tajFk1qhFI-8">
          <mxGeometry relative="1" as="geometry" />
        </mxCell>
        <mxCell id="tv8JQ7Ux13tajFk1qhFI-7" value="Break on Point" style="rounded=0;whiteSpace=wrap;html=1;" vertex="1" parent="tv8JQ7Ux13tajFk1qhFI-1">
          <mxGeometry x="354" y="350" width="120" height="60" as="geometry" />
        </mxCell>
        <mxCell id="tv8JQ7Ux13tajFk1qhFI-8" value="使用者能夠&lt;br&gt;使用Debug Tool" style="rounded=0;whiteSpace=wrap;html=1;" vertex="1" parent="tv8JQ7Ux13tajFk1qhFI-1">
          <mxGeometry x="354" y="440" width="120" height="60" as="geometry" />
        </mxCell>
      </root>
    </mxGraphModel>
  </diagram>
  <diagram id="wgPJ_EExdhnZlfSI5zTk" name="Engineering Mode(3) - Data log">
    <mxGraphModel dx="1422" dy="706" grid="1" gridSize="10" guides="1" tooltips="1" connect="1" arrows="1" fold="1" page="1" pageScale="1" pageWidth="827" pageHeight="1169" math="0" shadow="0">
      <root>
        <mxCell id="gXLfSQf0zzSyYljb4c7Y-0" />
        <mxCell id="gXLfSQf0zzSyYljb4c7Y-1" parent="gXLfSQf0zzSyYljb4c7Y-0" />
        <mxCell id="gXLfSQf0zzSyYljb4c7Y-13" style="edgeStyle=orthogonalEdgeStyle;rounded=0;orthogonalLoop=1;jettySize=auto;html=1;exitX=0.5;exitY=1;exitDx=0;exitDy=0;entryX=0.5;entryY=0;entryDx=0;entryDy=0;" edge="1" parent="gXLfSQf0zzSyYljb4c7Y-1" source="gXLfSQf0zzSyYljb4c7Y-2" target="gXLfSQf0zzSyYljb4c7Y-5">
          <mxGeometry relative="1" as="geometry" />
        </mxCell>
        <mxCell id="gXLfSQf0zzSyYljb4c7Y-2" value="使用者使用Engineering Mode" style="rounded=0;whiteSpace=wrap;html=1;" vertex="1" parent="gXLfSQf0zzSyYljb4c7Y-1">
          <mxGeometry x="354" y="70" width="120" height="60" as="geometry" />
        </mxCell>
        <mxCell id="gXLfSQf0zzSyYljb4c7Y-7" style="edgeStyle=orthogonalEdgeStyle;rounded=0;orthogonalLoop=1;jettySize=auto;html=1;exitX=0.5;exitY=1;exitDx=0;exitDy=0;entryX=0.5;entryY=0;entryDx=0;entryDy=0;" edge="1" parent="gXLfSQf0zzSyYljb4c7Y-1" source="gXLfSQf0zzSyYljb4c7Y-3" target="gXLfSQf0zzSyYljb4c7Y-4">
          <mxGeometry relative="1" as="geometry" />
        </mxCell>
        <mxCell id="gXLfSQf0zzSyYljb4c7Y-3" value="設置Property" style="rounded=0;whiteSpace=wrap;html=1;" vertex="1" parent="gXLfSQf0zzSyYljb4c7Y-1">
          <mxGeometry x="480" y="280" width="120" height="60" as="geometry" />
        </mxCell>
        <mxCell id="gXLfSQf0zzSyYljb4c7Y-9" style="edgeStyle=orthogonalEdgeStyle;rounded=0;orthogonalLoop=1;jettySize=auto;html=1;" edge="1" parent="gXLfSQf0zzSyYljb4c7Y-1" source="gXLfSQf0zzSyYljb4c7Y-4" target="gXLfSQf0zzSyYljb4c7Y-8">
          <mxGeometry relative="1" as="geometry" />
        </mxCell>
        <mxCell id="gXLfSQf0zzSyYljb4c7Y-4" value="設置Filter" style="rounded=0;whiteSpace=wrap;html=1;" vertex="1" parent="gXLfSQf0zzSyYljb4c7Y-1">
          <mxGeometry x="480" y="360" width="120" height="60" as="geometry" />
        </mxCell>
        <mxCell id="gXLfSQf0zzSyYljb4c7Y-6" style="edgeStyle=orthogonalEdgeStyle;rounded=0;orthogonalLoop=1;jettySize=auto;html=1;exitX=1;exitY=0.5;exitDx=0;exitDy=0;entryX=0.5;entryY=0;entryDx=0;entryDy=0;" edge="1" parent="gXLfSQf0zzSyYljb4c7Y-1" source="gXLfSQf0zzSyYljb4c7Y-5" target="gXLfSQf0zzSyYljb4c7Y-3">
          <mxGeometry relative="1" as="geometry" />
        </mxCell>
        <mxCell id="gXLfSQf0zzSyYljb4c7Y-11" style="edgeStyle=orthogonalEdgeStyle;rounded=0;orthogonalLoop=1;jettySize=auto;html=1;exitX=0;exitY=0.5;exitDx=0;exitDy=0;entryX=0.5;entryY=0;entryDx=0;entryDy=0;" edge="1" parent="gXLfSQf0zzSyYljb4c7Y-1" source="gXLfSQf0zzSyYljb4c7Y-5" target="gXLfSQf0zzSyYljb4c7Y-10">
          <mxGeometry relative="1" as="geometry" />
        </mxCell>
        <mxCell id="gXLfSQf0zzSyYljb4c7Y-5" value="繼續跑測試項?" style="rhombus;whiteSpace=wrap;html=1;" vertex="1" parent="gXLfSQf0zzSyYljb4c7Y-1">
          <mxGeometry x="374" y="180" width="80" height="80" as="geometry" />
        </mxCell>
        <mxCell id="gXLfSQf0zzSyYljb4c7Y-14" style="edgeStyle=orthogonalEdgeStyle;rounded=0;orthogonalLoop=1;jettySize=auto;html=1;entryX=1;entryY=0.5;entryDx=0;entryDy=0;" edge="1" parent="gXLfSQf0zzSyYljb4c7Y-1" source="gXLfSQf0zzSyYljb4c7Y-8" target="gXLfSQf0zzSyYljb4c7Y-2">
          <mxGeometry relative="1" as="geometry">
            <Array as="points">
              <mxPoint x="640" y="470" />
              <mxPoint x="640" y="100" />
            </Array>
          </mxGeometry>
        </mxCell>
        <mxCell id="gXLfSQf0zzSyYljb4c7Y-8" value="Apply" style="rounded=0;whiteSpace=wrap;html=1;" vertex="1" parent="gXLfSQf0zzSyYljb4c7Y-1">
          <mxGeometry x="480" y="440" width="120" height="60" as="geometry" />
        </mxCell>
        <mxCell id="gXLfSQf0zzSyYljb4c7Y-12" style="edgeStyle=orthogonalEdgeStyle;rounded=0;orthogonalLoop=1;jettySize=auto;html=1;exitX=0;exitY=0.5;exitDx=0;exitDy=0;entryX=0;entryY=0.5;entryDx=0;entryDy=0;" edge="1" parent="gXLfSQf0zzSyYljb4c7Y-1" source="gXLfSQf0zzSyYljb4c7Y-10" target="gXLfSQf0zzSyYljb4c7Y-2">
          <mxGeometry relative="1" as="geometry" />
        </mxCell>
        <mxCell id="gXLfSQf0zzSyYljb4c7Y-10" value="跑測試項" style="rounded=0;whiteSpace=wrap;html=1;" vertex="1" parent="gXLfSQf0zzSyYljb4c7Y-1">
          <mxGeometry x="254" y="280" width="120" height="60" as="geometry" />
        </mxCell>
      </root>
    </mxGraphModel>
  </diagram>
  <diagram name="Page-1" id="edf60f1a-56cd-e834-aa8a-f176f3a09ee4">
    <mxGraphModel dx="1422" dy="706" grid="1" gridSize="10" guides="1" tooltips="1" connect="1" arrows="1" fold="1" page="1" pageScale="1" pageWidth="1100" pageHeight="850" background="#ffffff" math="0" shadow="0">
      <root>
        <mxCell id="0" />
        <mxCell id="1" parent="0" />
        <mxCell id="60e70716793133e9-31" style="edgeStyle=orthogonalEdgeStyle;rounded=0;html=1;labelBackgroundColor=none;startSize=5;endArrow=classicThin;endFill=1;endSize=5;jettySize=auto;orthogonalLoop=1;strokeWidth=1;fontFamily=Verdana;fontSize=8" parent="1" source="60e70716793133e9-2" target="60e70716793133e9-5" edge="1">
          <mxGeometry relative="1" as="geometry" />
        </mxCell>
        <mxCell id="60e70716793133e9-2" value="Determine need to&amp;nbsp;&lt;div&gt;replenish value-add&amp;nbsp;&lt;/div&gt;&lt;div&gt;stock&lt;/div&gt;" style="shape=trapezoid;whiteSpace=wrap;html=1;rounded=0;shadow=1;labelBackgroundColor=none;strokeWidth=1;fontFamily=Verdana;fontSize=8;align=center;flipV=1;" parent="1" vertex="1">
          <mxGeometry x="100" y="120" width="120" height="60" as="geometry" />
        </mxCell>
        <mxCell id="60e70716793133e9-32" style="edgeStyle=orthogonalEdgeStyle;rounded=0;html=1;labelBackgroundColor=none;startSize=5;endArrow=classicThin;endFill=1;endSize=5;jettySize=auto;orthogonalLoop=1;strokeWidth=1;fontFamily=Verdana;fontSize=8" parent="1" source="60e70716793133e9-4" target="60e70716793133e9-5" edge="1">
          <mxGeometry relative="1" as="geometry" />
        </mxCell>
        <mxCell id="60e70716793133e9-4" value="Order a product that&lt;div&gt;requires value-add processing&lt;/div&gt;" style="rounded=0;whiteSpace=wrap;html=1;shadow=1;labelBackgroundColor=none;strokeWidth=1;fontFamily=Verdana;fontSize=8;align=center;" parent="1" vertex="1">
          <mxGeometry x="290" y="120" width="120" height="60" as="geometry" />
        </mxCell>
        <mxCell id="60e70716793133e9-33" value="Yes" style="edgeStyle=orthogonalEdgeStyle;rounded=0;html=1;labelBackgroundColor=none;startSize=5;endArrow=classicThin;endFill=1;endSize=5;jettySize=auto;orthogonalLoop=1;strokeWidth=1;fontFamily=Verdana;fontSize=8" parent="1" source="60e70716793133e9-5" target="60e70716793133e9-7" edge="1">
          <mxGeometry x="-0.7778" y="10" relative="1" as="geometry">
            <mxPoint as="offset" />
          </mxGeometry>
        </mxCell>
        <mxCell id="60e70716793133e9-37" value="No" style="edgeStyle=orthogonalEdgeStyle;rounded=0;html=1;labelBackgroundColor=none;startSize=5;endArrow=classicThin;endFill=1;endSize=5;jettySize=auto;orthogonalLoop=1;strokeWidth=1;fontFamily=Verdana;fontSize=8" parent="1" source="60e70716793133e9-5" target="60e70716793133e9-9" edge="1">
          <mxGeometry x="-0.5" y="10" relative="1" as="geometry">
            <mxPoint as="offset" />
          </mxGeometry>
        </mxCell>
        <mxCell id="60e70716793133e9-5" value="Frequently&lt;div&gt;performed&lt;/div&gt;&lt;div&gt;process?&lt;/div&gt;" style="rhombus;whiteSpace=wrap;html=1;rounded=0;shadow=1;labelBackgroundColor=none;strokeWidth=1;fontFamily=Verdana;fontSize=8;align=center;" parent="1" vertex="1">
          <mxGeometry x="200" y="220" width="100" height="60" as="geometry" />
        </mxCell>
        <mxCell id="60e70716793133e9-34" value="Yes" style="edgeStyle=orthogonalEdgeStyle;rounded=0;html=1;labelBackgroundColor=none;startSize=5;endArrow=classicThin;endFill=1;endSize=5;jettySize=auto;orthogonalLoop=1;strokeWidth=1;fontFamily=Verdana;fontSize=8" parent="1" source="60e70716793133e9-7" target="60e70716793133e9-8" edge="1">
          <mxGeometry x="-0.6667" y="10" relative="1" as="geometry">
            <mxPoint as="offset" />
          </mxGeometry>
        </mxCell>
        <mxCell id="60e70716793133e9-35" value="No" style="edgeStyle=orthogonalEdgeStyle;rounded=0;html=1;labelBackgroundColor=none;startSize=5;endArrow=classicThin;endFill=1;endSize=5;jettySize=auto;orthogonalLoop=1;strokeWidth=1;fontFamily=Verdana;fontSize=8" parent="1" source="60e70716793133e9-7" target="60e70716793133e9-10" edge="1">
          <mxGeometry x="-1" y="-10" relative="1" as="geometry">
            <mxPoint x="440" y="300" as="targetPoint" />
            <Array as="points" />
            <mxPoint as="offset" />
          </mxGeometry>
        </mxCell>
        <mxCell id="60e70716793133e9-7" value="New&amp;nbsp;&lt;div&gt;template&amp;nbsp;&lt;/div&gt;&lt;div&gt;needed?&lt;/div&gt;" style="rhombus;whiteSpace=wrap;html=1;rounded=0;shadow=1;labelBackgroundColor=none;strokeWidth=1;fontFamily=Verdana;fontSize=8;align=center;" parent="1" vertex="1">
          <mxGeometry x="390" y="220" width="100" height="60" as="geometry" />
        </mxCell>
        <mxCell id="60e70716793133e9-36" style="edgeStyle=orthogonalEdgeStyle;rounded=0;html=1;labelBackgroundColor=none;startSize=5;endArrow=classicThin;endFill=1;endSize=5;jettySize=auto;orthogonalLoop=1;strokeWidth=1;fontFamily=Verdana;fontSize=8" parent="1" source="60e70716793133e9-8" target="60e70716793133e9-10" edge="1">
          <mxGeometry relative="1" as="geometry">
            <Array as="points">
              <mxPoint x="600" y="290" />
              <mxPoint x="440" y="290" />
            </Array>
          </mxGeometry>
        </mxCell>
        <mxCell id="60e70716793133e9-8" value="Create work&amp;nbsp;&lt;div&gt;order template&lt;/div&gt;" style="rounded=1;whiteSpace=wrap;html=1;shadow=1;labelBackgroundColor=none;strokeWidth=1;fontFamily=Verdana;fontSize=8;align=center;" parent="1" vertex="1">
          <mxGeometry x="550" y="230" width="100" height="40" as="geometry" />
        </mxCell>
        <mxCell id="60e70716793133e9-38" style="edgeStyle=orthogonalEdgeStyle;rounded=0;html=1;labelBackgroundColor=none;startSize=5;endArrow=classicThin;endFill=1;endSize=5;jettySize=auto;orthogonalLoop=1;strokeWidth=1;fontFamily=Verdana;fontSize=8" parent="1" source="60e70716793133e9-9" target="60e70716793133e9-11" edge="1">
          <mxGeometry relative="1" as="geometry" />
        </mxCell>
        <mxCell id="60e70716793133e9-9" value="Create a work order" style="whiteSpace=wrap;html=1;rounded=0;shadow=1;labelBackgroundColor=none;strokeWidth=1;fontFamily=Verdana;fontSize=8;align=center;" parent="1" vertex="1">
          <mxGeometry x="190" y="320" width="120" height="40" as="geometry" />
        </mxCell>
        <mxCell id="60e70716793133e9-39" style="edgeStyle=orthogonalEdgeStyle;rounded=0;html=1;labelBackgroundColor=none;startSize=5;endArrow=classicThin;endFill=1;endSize=5;jettySize=auto;orthogonalLoop=1;strokeWidth=1;fontFamily=Verdana;fontSize=8" parent="1" source="60e70716793133e9-10" target="60e70716793133e9-12" edge="1">
          <mxGeometry relative="1" as="geometry" />
        </mxCell>
        <mxCell id="60e70716793133e9-10" value="Copy template&amp;nbsp;&lt;div&gt;to work order&lt;/div&gt;" style="whiteSpace=wrap;html=1;rounded=0;shadow=1;labelBackgroundColor=none;strokeWidth=1;fontFamily=Verdana;fontSize=8;align=center;" parent="1" vertex="1">
          <mxGeometry x="380" y="320" width="120" height="40" as="geometry" />
        </mxCell>
        <mxCell id="60e70716793133e9-41" style="edgeStyle=orthogonalEdgeStyle;rounded=0;html=1;labelBackgroundColor=none;startSize=5;endArrow=classicThin;endFill=1;endSize=5;jettySize=auto;orthogonalLoop=1;strokeWidth=1;fontFamily=Verdana;fontSize=8" parent="1" source="60e70716793133e9-11" target="60e70716793133e9-13" edge="1">
          <mxGeometry relative="1" as="geometry" />
        </mxCell>
        <mxCell id="60e70716793133e9-11" value="Add materials to work order processes" style="whiteSpace=wrap;html=1;rounded=0;shadow=1;labelBackgroundColor=none;strokeWidth=1;fontFamily=Verdana;fontSize=8;align=center;spacing=6;" parent="1" vertex="1">
          <mxGeometry x="190" y="410" width="120" height="40" as="geometry" />
        </mxCell>
        <mxCell id="60e70716793133e9-40" style="edgeStyle=orthogonalEdgeStyle;rounded=0;html=1;labelBackgroundColor=none;startSize=5;endArrow=classicThin;endFill=1;endSize=5;jettySize=auto;orthogonalLoop=1;strokeWidth=1;fontFamily=Verdana;fontSize=8" parent="1" source="60e70716793133e9-12" target="60e70716793133e9-13" edge="1">
          <mxGeometry relative="1" as="geometry" />
        </mxCell>
        <mxCell id="60e70716793133e9-12" value="Adjust material quantities if needed" style="whiteSpace=wrap;html=1;rounded=0;shadow=1;labelBackgroundColor=none;strokeWidth=1;fontFamily=Verdana;fontSize=8;align=center;spacing=6;" parent="1" vertex="1">
          <mxGeometry x="380" y="410" width="120" height="40" as="geometry" />
        </mxCell>
        <mxCell id="60e70716793133e9-42" style="edgeStyle=orthogonalEdgeStyle;rounded=0;html=1;labelBackgroundColor=none;startSize=5;endArrow=classicThin;endFill=1;endSize=5;jettySize=auto;orthogonalLoop=1;strokeWidth=1;fontFamily=Verdana;fontSize=8" parent="1" source="60e70716793133e9-13" target="60e70716793133e9-14" edge="1">
          <mxGeometry relative="1" as="geometry" />
        </mxCell>
        <mxCell id="60e70716793133e9-13" value="Monitor work orders" style="whiteSpace=wrap;html=1;rounded=0;shadow=1;labelBackgroundColor=none;strokeWidth=1;fontFamily=Verdana;fontSize=8;align=center;" parent="1" vertex="1">
          <mxGeometry x="280" y="500" width="120" height="40" as="geometry" />
        </mxCell>
        <mxCell id="60e70716793133e9-43" value="Yes" style="edgeStyle=orthogonalEdgeStyle;rounded=0;html=1;labelBackgroundColor=none;startSize=5;endArrow=classicThin;endFill=1;endSize=5;jettySize=auto;orthogonalLoop=1;strokeWidth=1;fontFamily=Verdana;fontSize=8" parent="1" source="60e70716793133e9-14" target="60e70716793133e9-15" edge="1">
          <mxGeometry x="-0.6667" y="10" relative="1" as="geometry">
            <mxPoint as="offset" />
          </mxGeometry>
        </mxCell>
        <mxCell id="60e70716793133e9-44" value="No" style="edgeStyle=orthogonalEdgeStyle;rounded=0;html=1;labelBackgroundColor=none;startSize=5;endArrow=classicThin;endFill=1;endSize=5;jettySize=auto;orthogonalLoop=1;strokeWidth=1;fontFamily=Verdana;fontSize=8" parent="1" source="60e70716793133e9-14" target="60e70716793133e9-16" edge="1">
          <mxGeometry x="-0.5" y="-10" relative="1" as="geometry">
            <mxPoint as="offset" />
          </mxGeometry>
        </mxCell>
        <mxCell id="60e70716793133e9-14" value="Material&amp;nbsp;&lt;div&gt;quantities not&amp;nbsp;&lt;/div&gt;&lt;div&gt;in stock?&lt;/div&gt;" style="rhombus;whiteSpace=wrap;html=1;rounded=0;shadow=1;labelBackgroundColor=none;strokeWidth=1;fontFamily=Verdana;fontSize=8;align=center;" parent="1" vertex="1">
          <mxGeometry x="290" y="570" width="100" height="60" as="geometry" />
        </mxCell>
        <mxCell id="60e70716793133e9-45" style="edgeStyle=orthogonalEdgeStyle;rounded=0;html=1;labelBackgroundColor=none;startSize=5;endArrow=classicThin;endFill=1;endSize=5;jettySize=auto;orthogonalLoop=1;strokeWidth=1;fontFamily=Verdana;fontSize=8" parent="1" source="60e70716793133e9-15" target="60e70716793133e9-16" edge="1">
          <mxGeometry relative="1" as="geometry">
            <Array as="points">
              <mxPoint x="510" y="650" />
              <mxPoint x="340" y="650" />
            </Array>
          </mxGeometry>
        </mxCell>
        <mxCell id="60e70716793133e9-15" value="Procedure or&amp;nbsp;&lt;div&gt;transfer materials&lt;/div&gt;" style="whiteSpace=wrap;html=1;rounded=0;shadow=1;labelBackgroundColor=none;strokeWidth=1;fontFamily=Verdana;fontSize=8;align=center;" parent="1" vertex="1">
          <mxGeometry x="450" y="580" width="120" height="40" as="geometry" />
        </mxCell>
        <mxCell id="60e70716793133e9-46" style="edgeStyle=orthogonalEdgeStyle;rounded=0;html=1;labelBackgroundColor=none;startSize=5;endArrow=classicThin;endFill=1;endSize=5;jettySize=auto;orthogonalLoop=1;strokeWidth=1;fontFamily=Verdana;fontSize=8" parent="1" source="60e70716793133e9-16" target="60e70716793133e9-17" edge="1">
          <mxGeometry relative="1" as="geometry" />
        </mxCell>
        <mxCell id="60e70716793133e9-16" value="Change status to&lt;div&gt;In Process&lt;/div&gt;" style="whiteSpace=wrap;html=1;rounded=0;shadow=1;labelBackgroundColor=none;strokeWidth=1;fontFamily=Verdana;fontSize=8;align=center;" parent="1" vertex="1">
          <mxGeometry x="280" y="670" width="120" height="40" as="geometry" />
        </mxCell>
        <mxCell id="60e70716793133e9-47" value="Yes" style="edgeStyle=orthogonalEdgeStyle;rounded=0;html=1;labelBackgroundColor=none;startSize=5;endArrow=classicThin;endFill=1;endSize=5;jettySize=auto;orthogonalLoop=1;strokeWidth=1;fontFamily=Verdana;fontSize=8" parent="1" source="60e70716793133e9-17" target="60e70716793133e9-18" edge="1">
          <mxGeometry x="-0.6667" y="10" relative="1" as="geometry">
            <mxPoint as="offset" />
          </mxGeometry>
        </mxCell>
        <mxCell id="60e70716793133e9-50" value="No" style="edgeStyle=orthogonalEdgeStyle;rounded=0;html=1;labelBackgroundColor=none;startSize=5;endArrow=classicThin;endFill=1;endSize=5;jettySize=auto;orthogonalLoop=1;strokeWidth=1;fontFamily=Verdana;fontSize=8" parent="1" source="60e70716793133e9-17" target="60e70716793133e9-19" edge="1">
          <mxGeometry x="-1" y="-10" relative="1" as="geometry">
            <mxPoint as="offset" />
          </mxGeometry>
        </mxCell>
        <mxCell id="60e70716793133e9-17" value="Step&amp;nbsp;&lt;div&gt;performed by&amp;nbsp;&lt;/div&gt;&lt;div&gt;outside&amp;nbsp;&lt;/div&gt;&lt;div&gt;vendor?&lt;/div&gt;" style="rhombus;whiteSpace=wrap;html=1;rounded=0;shadow=1;labelBackgroundColor=none;strokeWidth=1;fontFamily=Verdana;fontSize=8;align=center;" parent="1" vertex="1">
          <mxGeometry x="290" y="740" width="100" height="60" as="geometry" />
        </mxCell>
        <mxCell id="60e70716793133e9-48" style="edgeStyle=orthogonalEdgeStyle;rounded=0;html=1;labelBackgroundColor=none;startSize=5;endArrow=classicThin;endFill=1;endSize=5;jettySize=auto;orthogonalLoop=1;strokeWidth=1;fontFamily=Verdana;fontSize=8" parent="1" source="60e70716793133e9-18" target="60e70716793133e9-20" edge="1">
          <mxGeometry relative="1" as="geometry" />
        </mxCell>
        <mxCell id="60e70716793133e9-18" value="Add or adjust vendor costs" style="whiteSpace=wrap;html=1;rounded=0;shadow=1;labelBackgroundColor=none;strokeWidth=1;fontFamily=Verdana;fontSize=8;align=center;" parent="1" vertex="1">
          <mxGeometry x="450" y="750" width="120" height="40" as="geometry" />
        </mxCell>
        <mxCell id="60e70716793133e9-52" style="edgeStyle=orthogonalEdgeStyle;rounded=0;html=1;labelBackgroundColor=none;startSize=5;endArrow=classicThin;endFill=1;endSize=5;jettySize=auto;orthogonalLoop=1;strokeWidth=1;fontFamily=Verdana;fontSize=8" parent="1" source="60e70716793133e9-19" target="60e70716793133e9-21" edge="1">
          <mxGeometry relative="1" as="geometry" />
        </mxCell>
        <mxCell id="60e70716793133e9-19" value="Perform work&amp;nbsp;&lt;div&gt;order step&lt;/div&gt;" style="shape=trapezoid;whiteSpace=wrap;html=1;rounded=0;shadow=1;labelBackgroundColor=none;strokeWidth=1;fontFamily=Verdana;fontSize=8;align=center;flipV=1;" parent="1" vertex="1">
          <mxGeometry x="280" y="840" width="120" height="60" as="geometry" />
        </mxCell>
        <mxCell id="60e70716793133e9-49" style="edgeStyle=orthogonalEdgeStyle;rounded=0;html=1;labelBackgroundColor=none;startSize=5;endArrow=classicThin;endFill=1;endSize=5;jettySize=auto;orthogonalLoop=1;strokeWidth=1;fontFamily=Verdana;fontSize=8" parent="1" source="60e70716793133e9-20" target="60e70716793133e9-22" edge="1">
          <mxGeometry relative="1" as="geometry" />
        </mxCell>
        <mxCell id="60e70716793133e9-53" style="edgeStyle=orthogonalEdgeStyle;rounded=0;html=1;labelBackgroundColor=none;startSize=5;endArrow=classicThin;endFill=1;endSize=5;jettySize=auto;orthogonalLoop=1;strokeWidth=1;fontFamily=Verdana;fontSize=8" parent="1" source="60e70716793133e9-20" target="60e70716793133e9-27" edge="1">
          <mxGeometry relative="1" as="geometry">
            <Array as="points">
              <mxPoint x="510" y="920" />
              <mxPoint x="680" y="920" />
            </Array>
          </mxGeometry>
        </mxCell>
        <mxCell id="60e70716793133e9-20" value="Ship materials&amp;nbsp;&lt;div&gt;to vendor&lt;/div&gt;" style="rounded=1;whiteSpace=wrap;html=1;shadow=1;labelBackgroundColor=none;strokeWidth=1;fontFamily=Verdana;fontSize=8;align=center;" parent="1" vertex="1">
          <mxGeometry x="450" y="850" width="120" height="40" as="geometry" />
        </mxCell>
        <mxCell id="60e70716793133e9-51" value="Yes" style="edgeStyle=orthogonalEdgeStyle;rounded=0;html=1;labelBackgroundColor=none;startSize=5;endArrow=classicThin;endFill=1;endSize=5;jettySize=auto;orthogonalLoop=1;strokeWidth=1;fontFamily=Verdana;fontSize=8" parent="1" source="60e70716793133e9-21" target="60e70716793133e9-17" edge="1">
          <mxGeometry x="-0.6924" y="-20" relative="1" as="geometry">
            <Array as="points">
              <mxPoint x="260" y="969.9999999999998" />
              <mxPoint x="260" y="770" />
            </Array>
            <mxPoint as="offset" />
          </mxGeometry>
        </mxCell>
        <mxCell id="60e70716793133e9-54" value="No" style="edgeStyle=orthogonalEdgeStyle;rounded=0;html=1;labelBackgroundColor=none;startSize=5;endArrow=classicThin;endFill=1;endSize=5;jettySize=auto;orthogonalLoop=1;strokeWidth=1;fontFamily=Verdana;fontSize=8" parent="1" source="60e70716793133e9-21" target="60e70716793133e9-23" edge="1">
          <mxGeometry x="-1" y="-10" relative="1" as="geometry">
            <mxPoint as="offset" />
          </mxGeometry>
        </mxCell>
        <mxCell id="60e70716793133e9-21" value="Additional&amp;nbsp;&lt;div&gt;processing&amp;nbsp;&lt;/div&gt;&lt;div&gt;required?&lt;/div&gt;" style="rhombus;whiteSpace=wrap;html=1;rounded=0;shadow=1;labelBackgroundColor=none;strokeWidth=1;fontFamily=Verdana;fontSize=8;align=center;" parent="1" vertex="1">
          <mxGeometry x="290" y="940" width="100" height="60" as="geometry" />
        </mxCell>
        <mxCell id="60e70716793133e9-58" style="edgeStyle=orthogonalEdgeStyle;rounded=0;html=1;labelBackgroundColor=none;startSize=5;endArrow=classicThin;endFill=1;endSize=5;jettySize=auto;orthogonalLoop=1;strokeWidth=1;fontFamily=Verdana;fontSize=8" parent="1" source="60e70716793133e9-22" target="60e70716793133e9-24" edge="1">
          <mxGeometry relative="1" as="geometry" />
        </mxCell>
        <mxCell id="60e70716793133e9-22" value="Perform work&amp;nbsp;&lt;div&gt;order step&lt;/div&gt;" style="shape=trapezoid;whiteSpace=wrap;html=1;rounded=0;shadow=1;labelBackgroundColor=none;strokeWidth=1;fontFamily=Verdana;fontSize=8;align=center;flipV=1;" parent="1" vertex="1">
          <mxGeometry x="450" y="940" width="120" height="60" as="geometry" />
        </mxCell>
        <mxCell id="60e70716793133e9-55" style="edgeStyle=orthogonalEdgeStyle;rounded=0;html=1;labelBackgroundColor=none;startSize=5;endArrow=classicThin;endFill=1;endSize=5;jettySize=auto;orthogonalLoop=1;strokeWidth=1;fontFamily=Verdana;fontSize=8" parent="1" source="60e70716793133e9-23" target="60e70716793133e9-25" edge="1">
          <mxGeometry relative="1" as="geometry" />
        </mxCell>
        <mxCell id="60e70716793133e9-23" value="Receive info stock" style="rounded=1;whiteSpace=wrap;html=1;shadow=1;labelBackgroundColor=none;strokeWidth=1;fontFamily=Verdana;fontSize=8;align=center;" parent="1" vertex="1">
          <mxGeometry x="280" y="1040" width="120" height="40" as="geometry" />
        </mxCell>
        <mxCell id="60e70716793133e9-59" style="edgeStyle=orthogonalEdgeStyle;rounded=0;html=1;labelBackgroundColor=none;startSize=5;endArrow=classicThin;endFill=1;endSize=5;jettySize=auto;orthogonalLoop=1;strokeWidth=1;fontFamily=Verdana;fontSize=8" parent="1" source="60e70716793133e9-24" target="60e70716793133e9-26" edge="1">
          <mxGeometry relative="1" as="geometry" />
        </mxCell>
        <mxCell id="60e70716793133e9-24" value="Receive product&amp;nbsp;&lt;div&gt;from vendor&lt;/div&gt;" style="rounded=1;whiteSpace=wrap;html=1;shadow=1;labelBackgroundColor=none;strokeWidth=1;fontFamily=Verdana;fontSize=8;align=center;" parent="1" vertex="1">
          <mxGeometry x="450" y="1040" width="120" height="40" as="geometry" />
        </mxCell>
        <mxCell id="60e70716793133e9-56" style="edgeStyle=orthogonalEdgeStyle;rounded=0;html=1;labelBackgroundColor=none;startSize=5;endArrow=classicThin;endFill=1;endSize=5;jettySize=auto;orthogonalLoop=1;strokeWidth=1;fontFamily=Verdana;fontSize=8" parent="1" source="60e70716793133e9-25" target="60e70716793133e9-28" edge="1">
          <mxGeometry relative="1" as="geometry" />
        </mxCell>
        <mxCell id="60e70716793133e9-25" value="Ship product on order if needed" style="rounded=1;whiteSpace=wrap;html=1;shadow=1;labelBackgroundColor=none;strokeWidth=1;fontFamily=Verdana;fontSize=8;align=center;" parent="1" vertex="1">
          <mxGeometry x="280" y="1120" width="120" height="40" as="geometry" />
        </mxCell>
        <mxCell id="60e70716793133e9-60" value="No" style="edgeStyle=orthogonalEdgeStyle;rounded=0;html=1;labelBackgroundColor=none;startSize=5;endArrow=classicThin;endFill=1;endSize=5;jettySize=auto;orthogonalLoop=1;strokeWidth=1;fontFamily=Verdana;fontSize=8" parent="1" source="60e70716793133e9-26" target="60e70716793133e9-29" edge="1">
          <mxGeometry x="0.2" y="14" relative="1" as="geometry">
            <mxPoint x="-24" y="-10" as="offset" />
          </mxGeometry>
        </mxCell>
        <mxCell id="60e70716793133e9-61" value="Yes" style="edgeStyle=orthogonalEdgeStyle;rounded=0;html=1;labelBackgroundColor=none;startSize=5;endArrow=classicThin;endFill=1;endSize=5;jettySize=auto;orthogonalLoop=1;strokeWidth=1;fontFamily=Verdana;fontSize=8" parent="1" source="60e70716793133e9-26" target="60e70716793133e9-27" edge="1">
          <mxGeometry x="-0.6667" y="10" relative="1" as="geometry">
            <mxPoint as="offset" />
          </mxGeometry>
        </mxCell>
        <mxCell id="60e70716793133e9-26" value="Only partial&amp;nbsp;&lt;div&gt;quality&amp;nbsp;&lt;/div&gt;&lt;div&gt;received?&lt;/div&gt;" style="rhombus;whiteSpace=wrap;html=1;rounded=0;shadow=1;labelBackgroundColor=none;strokeWidth=1;fontFamily=Verdana;fontSize=8;align=center;" parent="1" vertex="1">
          <mxGeometry x="460" y="1110" width="100" height="60" as="geometry" />
        </mxCell>
        <mxCell id="60e70716793133e9-27" value="Create work&amp;nbsp;&lt;div&gt;order backorder&lt;/div&gt;" style="whiteSpace=wrap;html=1;rounded=0;shadow=1;labelBackgroundColor=none;strokeWidth=1;fontFamily=Verdana;fontSize=8;align=center;" parent="1" vertex="1">
          <mxGeometry x="620" y="1120" width="120" height="40" as="geometry" />
        </mxCell>
        <mxCell id="60e70716793133e9-57" style="edgeStyle=orthogonalEdgeStyle;rounded=0;html=1;labelBackgroundColor=none;startSize=5;endArrow=classicThin;endFill=1;endSize=5;jettySize=auto;orthogonalLoop=1;strokeWidth=1;fontFamily=Verdana;fontSize=8" parent="1" source="60e70716793133e9-28" target="60e70716793133e9-30" edge="1">
          <mxGeometry relative="1" as="geometry" />
        </mxCell>
        <mxCell id="60e70716793133e9-28" value="Change status to&lt;div&gt;Complete&lt;/div&gt;" style="whiteSpace=wrap;html=1;rounded=0;shadow=1;labelBackgroundColor=none;strokeWidth=1;fontFamily=Verdana;fontSize=8;align=center;" parent="1" vertex="1">
          <mxGeometry x="280" y="1200" width="120" height="40" as="geometry" />
        </mxCell>
        <mxCell id="60e70716793133e9-62" style="edgeStyle=orthogonalEdgeStyle;rounded=0;html=1;labelBackgroundColor=none;startSize=5;endArrow=classicThin;endFill=1;endSize=5;jettySize=auto;orthogonalLoop=1;strokeWidth=1;fontFamily=Verdana;fontSize=8" parent="1" source="60e70716793133e9-29" target="60e70716793133e9-21" edge="1">
          <mxGeometry relative="1" as="geometry">
            <Array as="points">
              <mxPoint x="430" y="1220" />
              <mxPoint x="430" y="920" />
              <mxPoint x="340" y="920" />
            </Array>
          </mxGeometry>
        </mxCell>
        <mxCell id="60e70716793133e9-29" value="Pay vendor invoice" style="rounded=1;whiteSpace=wrap;html=1;shadow=1;labelBackgroundColor=none;strokeWidth=1;fontFamily=Verdana;fontSize=8;align=center;" parent="1" vertex="1">
          <mxGeometry x="450" y="1200" width="120" height="40" as="geometry" />
        </mxCell>
        <mxCell id="60e70716793133e9-30" value="End" style="strokeWidth=1;html=1;shape=mxgraph.flowchart.terminator;whiteSpace=wrap;rounded=0;shadow=1;labelBackgroundColor=none;fontFamily=Verdana;fontSize=8;align=center;" parent="1" vertex="1">
          <mxGeometry x="310" y="1290" width="60" height="30" as="geometry" />
        </mxCell>
      </root>
    </mxGraphModel>
  </diagram>
</mxfile>
